<svg xmlns="http://www.w3.org/2000/svg" viewBox="0 0 120.66666666666663 83.5871704311582" class="css-1j8o68f mr-9">
    <defs id="SvgjsDefs4294">
        <linearGradient id="SvgjsLinearGradient4299">
            <stop id="SvgjsStop4300" stop-color="#8f5e25" offset="0"></stop>
            <stop id="SvgjsStop4301" stop-color="#ffd700" offset="0.5"></stop>
            <stop id="SvgjsStop4302" stop-color="#8f5e25" offset="1"></stop>
        </linearGradient>
        <linearGradient id="SvgjsLinearGradient4303">
            <stop id="SvgjsStop4304" stop-color="#8f5e25" offset="0"></stop>
            <stop id="SvgjsStop4305" stop-color="#ffd700" offset="0.5"></stop>
            <stop id="SvgjsStop4306" stop-color="#8f5e25" offset="1"></stop>
        </linearGradient>
    </defs>
    <g id="SvgjsG4295" featurekey="symbolFeature-0" transform="matrix(0.878811776638031,0,0,0.878811776638031,19.824940659485396,-2.636435411878265)" fill="url(#SvgjsLinearGradient4299)">
        <path xmlns="http://www.w3.org/2000/svg" d="M35.5,79.9c-6.1-6-4.9-5.6-7-7.7l0,0c-2.1-2.1-1.7-0.9-7.8-6.9c-0.4-0.4-0.9-0.3-1.3,0l-0.3,0.3c-0.4,0.4-0.4,0.9,0,1.3  c6,6,4.9,5.4,7.1,7.6l0,0c2.2,2.2,1.7,1,7.7,7c0.4,0.4,0.9,0.3,1.3,0l0.3-0.3C35.8,80.8,35.9,80.3,35.5,79.9z"></path>
        <path xmlns="http://www.w3.org/2000/svg" d="M76.1,34.9C90.5,19,97.3,3,97.3,3l0,0c0,0-15.9,6.9-31.8,21.3c-6.3,5.7-20.2,27-42,42.3c2.1,2,3,2.7,3.7,3.2  c0.5,0.4,0.9,0.7,1.5,1.2c0.1,0.1,52.2-51.5,52.2-51.5S29.5,71.9,29.5,71.9c0.6,0.6,0.9,1.1,1.3,1.6c0.5,0.7,1.2,1.6,3.2,3.7  C49.2,55.3,70.5,41.2,76.1,34.9z"></path>
        <path xmlns="http://www.w3.org/2000/svg" d="M27.4,76.9c-0.6-0.4-1-0.8-1.9-1.7c-0.9-0.9-1.3-1.4-1.7-1.9c-0.1-0.1-0.2-0.2-0.3-0.4C14.2,80.8,6.8,91.1,6.8,91.1l2.7,2.7  c0,0,10.2-7.5,18.1-16.7C27.5,77,27.4,77,27.4,76.9z"></path>
        <path xmlns="http://www.w3.org/2000/svg" d="M5.4,97.9l-2.7-2.7c-0.3-0.3-0.3-0.9,0-1.2l2.5-2.3c0.3-0.3,0.9-0.3,1.2,0l2.4,2.4c0.3,0.3,0.3,0.9,0,1.2l-2.2,2.5  C6.2,98.2,5.7,98.2,5.4,97.9z"></path>
    </g>
</svg>
